# Blender 4.1.1
# www.blender.org
mtllib 4.mtl
o Gemstone_01.003
v -2.520735 4.085318 -0.730359
v -2.520735 4.085318 -0.730359
v -2.520735 4.085318 -0.730359
v -2.520735 4.085318 -0.730359
v -2.520735 4.085318 -0.730359
v -2.577845 4.124687 -0.600000
v -2.577845 4.124687 -0.600000
v -2.577845 4.124687 -0.600000
v -2.577845 4.124687 -0.600000
v -2.653295 4.124687 -0.782153
v -2.653295 4.124687 -0.782153
v -2.653295 4.124687 -0.782153
v -2.653295 4.124687 -0.782153
v -2.402594 3.974179 -0.779294
v -2.402594 3.974179 -0.779294
v -2.402594 3.974179 -0.779294
v -2.402594 3.974179 -0.779294
v -2.368127 3.972530 -0.600000
v -2.368127 3.972530 -0.600000
v -2.368127 3.972530 -0.600000
v -2.368127 3.972530 -0.600000
v -2.368127 3.972530 -0.600000
v -2.505002 3.972530 -0.930446
v -2.505002 3.972530 -0.930446
v -2.505002 3.972530 -0.930446
v -2.505002 3.972530 -0.930446
v -2.505002 3.972530 -0.930446
v -2.504079 3.943636 -0.931370
v -2.504079 3.943636 -0.931370
v -2.504079 3.943636 -0.931370
v -2.504079 3.943636 -0.931370
v -2.504079 3.943636 -0.931370
v -2.656154 3.974179 -1.032854
v -2.656154 3.974179 -1.032854
v -2.656154 3.974179 -1.032854
v -2.656154 3.974179 -1.032854
v -2.705090 4.085318 -0.914714
v -2.705090 4.085318 -0.914714
v -2.705090 4.085318 -0.914714
v -2.705090 4.085318 -0.914714
v -2.705090 4.085318 -0.914714
v -2.835449 4.124687 -0.857604
v -2.835449 4.124687 -0.857604
v -2.835449 4.124687 -0.857604
v -2.835449 4.124687 -0.857604
v -2.835449 3.972530 -1.067322
v -2.835449 3.972530 -1.067322
v -2.835449 3.972530 -1.067322
v -2.835449 3.972530 -1.067322
v -2.835449 3.972530 -1.067322
v -3.014743 3.974179 -1.032854
v -3.014743 3.974179 -1.032854
v -3.014743 3.974179 -1.032854
v -3.014743 3.974179 -1.032854
v -2.835449 3.943636 -1.068627
v -2.835449 3.943636 -1.068627
v -2.835449 3.943636 -1.068627
v -2.835449 3.943636 -1.068627
v -2.835449 3.943636 -1.068627
v -2.965807 4.085318 -0.914714
v -2.965807 4.085318 -0.914714
v -2.965807 4.085318 -0.914714
v -2.965807 4.085318 -0.914714
v -2.965807 4.085318 -0.914714
v -3.017602 4.124687 -0.782153
v -3.017602 4.124687 -0.782153
v -3.017602 4.124687 -0.782153
v -3.017602 4.124687 -0.782153
v -3.165895 3.972530 -0.930446
v -3.165895 3.972530 -0.930446
v -3.165895 3.972530 -0.930446
v -3.165895 3.972530 -0.930446
v -3.165895 3.972530 -0.930446
v -3.268303 3.974179 -0.779294
v -3.268303 3.974179 -0.779294
v -3.268303 3.974179 -0.779294
v -3.268303 3.974179 -0.779294
v -3.166818 3.943636 -0.931370
v -3.166818 3.943636 -0.931370
v -3.166818 3.943636 -0.931370
v -3.166818 3.943636 -0.931370
v -3.166818 3.943636 -0.931370
v -3.150162 4.085318 -0.730359
v -3.150162 4.085318 -0.730359
v -3.150162 4.085318 -0.730359
v -3.150162 4.085318 -0.730359
v -3.150162 4.085318 -0.730359
v -3.093052 4.124687 -0.600000
v -3.093052 4.124687 -0.600000
v -3.093052 4.124687 -0.600000
v -3.093052 4.124687 -0.600000
v -3.302770 3.972530 -0.600000
v -3.302770 3.972530 -0.600000
v -3.302770 3.972530 -0.600000
v -3.302770 3.972530 -0.600000
v -3.302770 3.972530 -0.600000
v -3.268303 3.974179 -0.420706
v -3.268303 3.974179 -0.420706
v -3.268303 3.974179 -0.420706
v -3.268303 3.974179 -0.420706
v -3.304076 3.943636 -0.600000
v -3.304076 3.943636 -0.600000
v -3.304076 3.943636 -0.600000
v -3.304076 3.943636 -0.600000
v -3.304076 3.943636 -0.600000
v -3.150162 4.085318 -0.469641
v -3.150162 4.085318 -0.469641
v -3.150162 4.085318 -0.469641
v -3.150162 4.085318 -0.469641
v -3.150162 4.085318 -0.469641
v -3.017602 4.124687 -0.417847
v -3.017602 4.124687 -0.417847
v -3.017602 4.124687 -0.417847
v -3.017602 4.124687 -0.417847
v -3.165895 3.972530 -0.269554
v -3.165895 3.972530 -0.269554
v -3.165895 3.972530 -0.269554
v -3.165895 3.972530 -0.269554
v -3.165895 3.972530 -0.269554
v -3.014743 3.974179 -0.167146
v -3.014743 3.974179 -0.167146
v -3.014743 3.974179 -0.167146
v -3.014743 3.974179 -0.167146
v -3.166818 3.943636 -0.268630
v -3.166818 3.943636 -0.268630
v -3.166818 3.943636 -0.268630
v -3.166818 3.943636 -0.268630
v -3.166818 3.943636 -0.268630
v -2.965807 4.085318 -0.285286
v -2.965807 4.085318 -0.285286
v -2.965807 4.085318 -0.285286
v -2.965807 4.085318 -0.285286
v -2.965807 4.085318 -0.285286
v -2.835449 4.124687 -0.342396
v -2.835449 4.124687 -0.342396
v -2.835449 4.124687 -0.342396
v -2.835449 4.124687 -0.342396
v -2.835449 3.972530 -0.132678
v -2.835449 3.972530 -0.132678
v -2.835449 3.972530 -0.132678
v -2.835449 3.972530 -0.132678
v -2.835449 3.972530 -0.132678
v -2.656154 3.974179 -0.167146
v -2.656154 3.974179 -0.167146
v -2.656154 3.974179 -0.167146
v -2.656154 3.974179 -0.167146
v -2.835449 3.943636 -0.131373
v -2.835449 3.943636 -0.131373
v -2.835449 3.943636 -0.131373
v -2.835449 3.943636 -0.131373
v -2.835449 3.943636 -0.131373
v -2.705090 4.085318 -0.285286
v -2.705090 4.085318 -0.285286
v -2.705090 4.085318 -0.285286
v -2.705090 4.085318 -0.285286
v -2.705090 4.085318 -0.285286
v -2.653295 4.124687 -0.417847
v -2.653295 4.124687 -0.417847
v -2.653295 4.124687 -0.417847
v -2.653295 4.124687 -0.417847
v -2.505002 3.972530 -0.269554
v -2.505002 3.972530 -0.269554
v -2.505002 3.972530 -0.269554
v -2.505002 3.972530 -0.269554
v -2.505002 3.972530 -0.269554
v -2.504079 3.943636 -0.268630
v -2.504079 3.943636 -0.268630
v -2.504079 3.943636 -0.268630
v -2.504079 3.943636 -0.268630
v -2.504079 3.943636 -0.268630
v -2.402594 3.974179 -0.420706
v -2.402594 3.974179 -0.420706
v -2.402594 3.974179 -0.420706
v -2.402594 3.974179 -0.420706
v -2.520735 4.085318 -0.469641
v -2.520735 4.085318 -0.469641
v -2.520735 4.085318 -0.469641
v -2.520735 4.085318 -0.469641
v -2.520735 4.085318 -0.469641
v -2.402005 3.943035 -0.420462
v -2.402005 3.943035 -0.420462
v -2.402005 3.943035 -0.420462
v -2.402005 3.943035 -0.420462
v -2.366821 3.943636 -0.600000
v -2.366821 3.943636 -0.600000
v -2.366821 3.943636 -0.600000
v -2.366821 3.943636 -0.600000
v -2.366821 3.943636 -0.600000
v -2.641031 3.699301 -0.519469
v -2.641031 3.699301 -0.519469
v -2.641031 3.699301 -0.519469
v -2.641031 3.699301 -0.519469
v -2.835449 3.531713 -0.600000
v -2.835449 3.531713 -0.600000
v -2.835449 3.531713 -0.600000
v -2.835449 3.531713 -0.600000
v -2.835449 3.531713 -0.600000
v -2.835449 3.531713 -0.600000
v -2.835449 3.531713 -0.600000
v -2.835449 3.531713 -0.600000
v -2.641031 3.699301 -0.680531
v -2.641031 3.699301 -0.680531
v -2.641031 3.699301 -0.680531
v -2.641031 3.699301 -0.680531
v -2.915979 3.699301 -0.405582
v -2.915979 3.699301 -0.405582
v -2.915979 3.699301 -0.405582
v -2.915979 3.699301 -0.405582
v -3.029866 3.699301 -0.680531
v -3.029866 3.699301 -0.680531
v -3.029866 3.699301 -0.680531
v -3.029866 3.699301 -0.680531
v -2.754918 3.699301 -0.794418
v -2.754918 3.699301 -0.794418
v -2.754918 3.699301 -0.794418
v -2.754918 3.699301 -0.794418
v -2.754918 3.699301 -0.405582
v -2.754918 3.699301 -0.405582
v -2.754918 3.699301 -0.405582
v -2.754918 3.699301 -0.405582
v -3.029866 3.699301 -0.519469
v -3.029866 3.699301 -0.519469
v -3.029866 3.699301 -0.519469
v -3.029866 3.699301 -0.519469
v -2.915979 3.699301 -0.794418
v -2.915979 3.699301 -0.794418
v -2.915979 3.699301 -0.794418
v -2.915979 3.699301 -0.794418
v -3.014987 3.943035 -1.033443
v -3.014987 3.943035 -1.033443
v -3.014987 3.943035 -1.033443
v -3.014987 3.943035 -1.033443
v -3.268892 3.943035 -0.420462
v -3.268892 3.943035 -0.420462
v -3.268892 3.943035 -0.420462
v -3.268892 3.943035 -0.420462
v -2.655910 3.943035 -0.166557
v -2.655910 3.943035 -0.166557
v -2.655910 3.943035 -0.166557
v -2.655910 3.943035 -0.166557
v -2.655910 3.943035 -1.033443
v -2.655910 3.943035 -1.033443
v -2.655910 3.943035 -1.033443
v -2.655910 3.943035 -1.033443
v -3.268892 3.943035 -0.779538
v -3.268892 3.943035 -0.779538
v -3.268892 3.943035 -0.779538
v -3.268892 3.943035 -0.779538
v -3.014987 3.943035 -0.166557
v -3.014987 3.943035 -0.166557
v -3.014987 3.943035 -0.166557
v -3.014987 3.943035 -0.166557
v -2.402005 3.943035 -0.779538
v -2.402005 3.943035 -0.779538
v -2.402005 3.943035 -0.779538
v -2.402005 3.943035 -0.779538
vn 0.3308 0.9337 -0.1370
vn 0.5872 0.8094 -0.0000
vn 0.4152 0.8094 -0.4152
vn 0.6538 0.7473 -0.1188
vn 0.5463 0.7473 -0.3783
vn 0.5592 0.0317 -0.8284
vn 0.8284 0.0317 -0.5592
vn 0.3783 0.7473 -0.5463
vn 0.1370 0.9337 -0.3308
vn -0.0000 0.8094 -0.5872
vn 0.1188 0.7473 -0.6538
vn -0.1904 0.0317 -0.9812
vn -0.1188 0.7473 -0.6538
vn 0.1904 0.0317 -0.9812
vn -0.1370 0.9337 -0.3308
vn -0.4152 0.8094 -0.4152
vn -0.3783 0.7473 -0.5463
vn -0.8284 0.0317 -0.5592
vn -0.5463 0.7473 -0.3783
vn -0.5592 0.0317 -0.8284
vn -0.3308 0.9337 -0.1370
vn -0.5872 0.8094 -0.0000
vn -0.6538 0.7473 -0.1188
vn -0.9812 0.0317 0.1904
vn -0.6538 0.7473 0.1188
vn -0.9812 0.0317 -0.1904
vn -0.3308 0.9337 0.1370
vn -0.4152 0.8094 0.4152
vn -0.5463 0.7473 0.3783
vn -0.5592 0.0317 0.8284
vn -0.3783 0.7473 0.5463
vn -0.8284 0.0317 0.5592
vn -0.1370 0.9337 0.3308
vn -0.0000 0.8094 0.5872
vn -0.1188 0.7473 0.6538
vn 0.1904 0.0317 0.9812
vn 0.1188 0.7473 0.6538
vn -0.1904 0.0317 0.9812
vn 0.1370 0.9337 0.3308
vn 0.4152 0.8094 0.4152
vn 0.3783 0.7473 0.5463
vn 0.8284 0.0317 0.5592
vn 0.5592 0.0317 0.8284
vn 0.5463 0.7473 0.3783
vn 0.3308 0.9337 0.1370
vn 0.6538 0.7473 0.1188
vn 0.9812 0.0317 0.1904
vn 0.5739 -0.7208 0.3887
vn 0.6807 -0.7208 0.1310
vn 0.6602 -0.7511 -0.0000
vn 0.4668 -0.7511 0.4668
vn 0.4668 -0.7511 -0.4668
vn -0.0000 -0.7511 0.6602
vn -0.4668 -0.7511 0.4668
vn -0.6602 -0.7511 -0.0000
vn -0.4668 -0.7511 -0.4668
vn -0.0000 -0.7511 -0.6602
vn -0.1310 -0.7208 -0.6807
vn -0.3887 -0.7208 -0.5739
vn -0.6807 -0.7208 0.1310
vn -0.5739 -0.7208 0.3887
vn 0.1310 -0.7208 0.6807
vn 0.3887 -0.7208 0.5739
vn 0.3887 -0.7208 -0.5739
vn 0.1310 -0.7208 -0.6807
vn -0.5739 -0.7208 -0.3887
vn -0.6807 -0.7208 -0.1310
vn -0.3887 -0.7208 0.5739
vn -0.1310 -0.7208 0.6807
vn 0.6807 -0.7208 -0.1310
vn 0.5739 -0.7208 -0.3887
vn 0.9812 0.0317 -0.1904
vn -0.0000 1.0000 -0.0000
vt 0.425593 0.696228
vt 0.454689 0.712403
vt 0.434714 0.739195
vt 0.475729 0.661467
vt 0.420676 0.663314
vt 0.494955 0.750053
vt 0.444077 0.771275
vt 0.493930 0.703890
vt 0.477877 0.792953
vt 0.502467 0.751407
vt 0.485230 0.797670
vt 0.502467 0.702037
vt 0.411166 0.776274
vt 0.446010 0.826352
vt 0.395066 0.805400
vt 0.403612 0.844607
vt 0.450367 0.832618
vt 0.405473 0.853141
vt 0.368298 0.785527
vt 0.357460 0.845657
vt 0.336276 0.794804
vt 0.314580 0.828559
vt 0.356106 0.853168
vt 0.309856 0.835907
vt 0.331359 0.761889
vt 0.281223 0.796651
vt 0.302263 0.745714
vt 0.263022 0.754227
vt 0.274952 0.801000
vt 0.254486 0.756080
vt 0.322238 0.718922
vt 0.261997 0.708064
vt 0.312875 0.686842
vt 0.279075 0.665164
vt 0.254486 0.706710
vt 0.271722 0.660448
vt 0.345786 0.681843
vt 0.310942 0.631765
vt 0.361886 0.652717
vt 0.353340 0.613511
vt 0.306585 0.625500
vt 0.351480 0.604976
vt 0.388654 0.672590
vt 0.399492 0.612460
vt 0.442373 0.629558
vt 0.400846 0.604949
vt 0.447096 0.622210
vt 0.482000 0.657117
vt 0.774980 0.465602
vt 0.691394 0.430982
vt 0.774980 0.415138
vt 0.756512 0.368175
vt 0.648141 0.439181
vt 0.672928 0.402799
vt 0.684523 0.463969
vt 0.674562 0.312342
vt 0.639942 0.395927
vt 0.719147 0.547553
vt 0.656340 0.482435
vt 0.621719 0.566020
vt 0.623353 0.475564
vt 0.539769 0.510187
vt 0.604887 0.447380
vt 0.521301 0.412760
vt 0.611758 0.414394
vt 0.577134 0.330810
vt 0.541451 0.366493
vt 0.575453 0.545871
vt 0.754830 0.511869
vt 0.624098 0.312342
vt 0.521301 0.463224
vt 0.672183 0.566020
vt 0.720829 0.332491
s 0
usemtl V_02.001
f 8/1/1 1/2/1 12/3/1
s 1
f 18/4/2 4/2/2 9/1/2
f 18/4/2 9/1/2 178/5/2
f 13/3/3 2/2/3 24/6/3
f 13/3/3 24/6/3 41/7/3
s 0
f 15/8/4 5/2/4 20/4/4
s 1
f 14/8/5 25/6/5 3/2/5
f 36/9/6 26/6/6 30/10/6
f 36/9/6 30/10/6 244/11/6
f 27/6/7 16/8/7 255/12/7
f 27/6/7 255/12/7 32/10/7
s 0
f 35/9/8 40/7/8 23/6/8
f 11/3/9 39/7/9 44/13/9
s 1
f 42/13/10 37/7/10 46/14/10
f 42/13/10 46/14/10 60/15/10
s 0
f 33/9/11 47/14/11 38/7/11
s 1
f 52/16/12 50/14/12 59/17/12
f 52/16/12 59/17/12 230/18/12
s 0
f 51/16/13 61/15/13 49/14/13
s 1
f 242/11/14 57/17/14 48/14/14
f 242/11/14 48/14/14 34/9/14
s 0
f 45/13/15 62/15/15 66/19/15
s 1
f 68/19/16 64/15/16 70/20/16
f 68/19/16 70/20/16 84/21/16
s 0
f 53/16/17 69/20/17 63/15/17
s 1
f 76/22/18 73/20/18 82/23/18
f 76/22/18 82/23/18 247/24/18
s 0
f 74/22/19 85/21/19 71/20/19
s 1
f 72/20/20 54/16/20 232/18/20
f 72/20/20 232/18/20 80/23/20
s 0
f 67/19/21 83/21/21 90/25/21
s 1
f 91/25/22 86/21/22 92/26/22
f 91/25/22 92/26/22 109/27/22
s 0
f 75/22/23 94/26/23 87/21/23
s 1
f 100/28/24 95/26/24 104/29/24
f 100/28/24 104/29/24 236/30/24
s 0
f 98/28/25 110/27/25 93/26/25
s 1
f 248/24/26 105/29/26 96/26/26
f 248/24/26 96/26/26 77/22/26
s 0
f 89/25/27 106/27/27 113/31/27
s 1
f 114/31/28 107/27/28 116/32/28
f 114/31/28 116/32/28 133/33/28
s 0
f 97/28/29 117/32/29 108/27/29
s 1
f 123/34/30 118/32/30 126/35/30
f 123/34/30 126/35/30 252/36/30
s 0
f 122/34/31 132/33/31 115/32/31
s 1
f 119/32/32 99/28/32 235/30/32
f 119/32/32 235/30/32 128/35/32
s 0
f 112/31/33 131/33/33 137/37/33
s 1
f 134/37/34 129/33/34 138/38/34
f 134/37/34 138/38/34 152/39/34
s 0
f 120/34/35 141/38/35 130/33/35
s 1
f 144/40/36 140/38/36 149/41/36
f 144/40/36 149/41/36 238/42/36
s 0
f 143/40/37 153/39/37 139/38/37
s 1
f 250/36/38 151/41/38 142/38/38
f 250/36/38 142/38/38 121/34/38
s 0
f 136/37/39 154/39/39 158/43/39
s 1
f 160/43/40 156/39/40 162/44/40
f 160/43/40 162/44/40 176/5/40
f 145/40/41 161/44/41 155/39/41
f 173/45/42 165/44/42 170/46/42
f 173/45/42 170/46/42 182/47/42
f 164/44/43 146/40/43 240/42/43
f 164/44/43 240/42/43 168/46/43
s 0
f 163/44/44 171/45/44 177/5/44
f 159/43/45 175/5/45 7/1/45
f 19/4/46 179/5/46 172/45/46
s 1
f 183/47/47 187/48/47 21/4/47
f 183/47/47 21/4/47 174/45/47
s 0
f 169/49/48 190/50/48 180/51/48
f 185/52/49 181/51/49 192/50/49
s 1
f 184/52/50 191/50/50 197/53/50
f 184/52/50 197/53/50 203/54/50
f 167/49/51 220/55/51 195/53/51
f 167/49/51 195/53/51 189/50/51
f 29/56/52 201/54/52 196/53/52
f 29/56/52 196/53/52 216/57/52
f 147/58/53 205/59/53 193/53/53
f 147/58/53 193/53/53 217/55/53
f 125/60/54 221/61/54 198/53/54
f 125/60/54 198/53/54 208/59/54
f 101/62/55 211/63/55 200/53/55
f 101/62/55 200/53/55 223/61/55
f 79/64/56 228/65/56 199/53/56
f 79/64/56 199/53/56 209/63/56
f 55/66/57 213/57/57 194/53/57
f 55/66/57 194/53/57 225/65/57
s 0
f 58/66/58 226/65/58 229/67/58
f 78/64/59 231/67/59 227/65/59
f 102/62/60 224/61/60 234/68/60
f 127/60/61 233/68/61 222/61/61
f 148/58/62 218/55/62 237/69/62
f 166/49/63 239/69/63 219/55/63
f 28/56/64 215/57/64 243/70/64
f 56/66/65 241/70/65 214/57/65
f 81/64/66 210/63/66 245/71/66
f 103/62/67 246/71/67 212/63/67
f 124/60/68 207/59/68 251/72/68
f 150/58/69 249/72/69 206/59/69
f 186/52/70 204/54/70 254/73/70
f 31/56/71 253/73/71 202/54/71
s 1
f 17/8/72 22/4/72 188/48/72
f 17/8/72 188/48/72 256/12/72
s 0
f 157/43/73 6/1/73 10/3/73
f 10/3/73 43/13/73 65/19/73
f 65/19/73 88/25/73 111/31/73
f 111/31/73 135/37/73 157/43/73
f 157/43/73 10/3/73 65/19/73
f 65/19/73 111/31/73 157/43/73
